<svg xmlns='http://www.w3.org/2000/svg' preserveAspectRatio='xMinYMin meet' viewBox='0 0 25 25' width='500' height='500'><rect width="25" height="25" fill="#E95DA2"/><path d="M15 15V20H19V21H6V20H10V15H15ZM5 24V21H6V24H5ZM5 24V25H4V24H5ZM20 24V21H19V24H20ZM20 24V25H21V24H20ZM11 20H14V16H11V20Z" fill="black"/><path d="M11 16H14V20H11V16ZM19 21V24H20V25H5V24H6V21H19Z" fill="#DE8B5F"/><path d="M3 21H5V24H4V25H1V24H2V22H3V21ZM22 21H20V24H21V25H24V24H23V22H22V21Z" fill="#692E14"/><path d="M5 20H3V21H2V22H1V24H0V25H1V24H2V22H3V21H5V24H4V25H5V24H6V21H5V20ZM22 20H20V21H19V24H20V25H21V24H20V21H22V22H23V24H24V25H25V24H24V22H23V21H22V20Z" fill="black"/><path d="M10 5H15V6H10V5ZM18 8V7H7V8H6V17H7V18H18V17H19V8H18ZM16 19H9V20H16V19Z" fill="#F57D20"/><path d="M18 6V7H7V6H9V4H16V6H18ZM6 8V7H7V8H6ZM6 17H5V8H6V17ZM7 18H6V17H7V18ZM18 18V19H17V20H16V19H9V20H8V19H7V18H18ZM19 17H18V18H19V17ZM19 8H18V7H19V8ZM19 8V17H20V8H19ZM15 5H10V6H15V5Z" fill="black"/><path fill-rule="evenodd" clip-rule="evenodd" d="M11 11H9V13H11V11ZM16 11H14V13H16V11ZM10 15H15V16H10V15Z" fill="black" /><path fill-rule="evenodd" clip-rule="evenodd" d="M9 2H16V3H9V2ZM7 4V3H9V4H7ZM6 5V4H7V5H6ZM5 7H6V5H5V7ZM5 13V7H4V13H5ZM6 13V14H5V13H6ZM7 10V13H6V10H7ZM18 10H7V9H18V10ZM19 13H18V10H19V13ZM20 13V14H19V13H20ZM20 7H21V13H20V7ZM19 5H20V7H19V5ZM18 4H19V5H18V4ZM18 4V3H16V4H18Z" fill="black" /><path fill-rule="evenodd" clip-rule="evenodd" d="M20 7V13H19V10H18V9H7V10H6V13H5V7H6V5H7V4H9V3H16V4H18V5H19V7H20Z" fill="#9ACA3C" /></svg>